# xmcd CD database file
#
# Track frame offsets:
#	150
#	19371
#	38662
#	60460
#	74197
#	85314
#	98883
#	119037
#	131923
#	152447
#	164578
#	178280
#
# Disc length: 2544 seconds
#
# Revision: 0
# Processed by: cddbd v1.5.2PL0 Copyright (c) Steve Scherf et al.
# Submitted via: CDex 1.70beta2
#
DISCID=b109ee0c
DTITLE=Compilation - Perk-O-lations (Disk 1)
DYEAR=2006
DGENRE=Jazz
TTITLE0=Getting To Know You-WS
TTITLE1=Salt Peanuts-DG&CP
TTITLE2=All The Things You Are-CB
TTITLE3=Ornithology-CP
TTITLE4=Out Of Nowhere-SG
TTITLE5=Nice Work-TM
TTITLE6=B.J.-JC
TTITLE7=I Get A Kick-SV
TTITLE8=So Long Eric-CM
TTITLE9=I'm Beginning-EF
TTITLE10=Easy Living-BH
TTITLE11=Ain't Misbehavin'-DW
EXTD=YEAR: 2006
EXTT0=
EXTT1=
EXTT2=
EXTT3=
EXTT4=
EXTT5=
EXTT6=
EXTT7=
EXTT8=
EXTT9=
EXTT10=
EXTT11=
PLAYORDER=
